HIERARCHY
ROOT SpineBase
{
  OFFSET 0.000000 0.000000 0.000000
  CHANNELS 6 Xposition Yposition Zposition Zrotation Xrotation Yrotation
  JOINT SpineMid
  {
    OFFSET -0.000000 31.565109 0.000000
    CHANNELS 3 Zrotation Xrotation Yrotation
    JOINT SpineShoulder
    {
      OFFSET 0.145973 23.443546 -0.767822
      CHANNELS 3 Zrotation Xrotation Yrotation
      JOINT Neck
      {
        OFFSET 0.105583 7.757601 -0.590404
        CHANNELS 3 Zrotation Xrotation Yrotation
        JOINT Head
        {
          OFFSET 4.891324 11.956457 2.148755
          CHANNELS 3 Zrotation Xrotation Yrotation
          End Site
          {
            OFFSET 0 0 0
          }
        }
      }
      JOINT ShoulderLeft
      {
        OFFSET -7.403705 -2.854052 -14.484721
        CHANNELS 3 Zrotation Xrotation Yrotation
        JOINT ElbowLeft
        {
          OFFSET -3.277418 -21.708689 -7.663257
          CHANNELS 3 Zrotation Xrotation Yrotation
          JOINT WristLeft
          {
            OFFSET 28.086757 -10.279644 -0.811468
            CHANNELS 3 Zrotation Xrotation Yrotation
            JOINT HandLeft
            {
              OFFSET 5.702487 0.504105 -1.434543
              CHANNELS 3 Zrotation Xrotation Yrotation
              JOINT HandTipLeft
              {
                OFFSET 8.070134 -2.387297 -2.321741
                CHANNELS 3 Zrotation Xrotation Yrotation
                End Site
                {
                  OFFSET 0 0 0
                }
              }
              JOINT ThumbLeft
              {
                OFFSET -0.528492 -3.444407 -2.100022
                CHANNELS 3 Zrotation Xrotation Yrotation
                End Site
                {
                  OFFSET 0 0 0
                }
              }
            }
          }
        }
      }
      JOINT ShoulderRight
      {
        OFFSET 11.509707 -4.189904 13.247438
        CHANNELS 3 Zrotation Xrotation Yrotation
        JOINT ElbowRight
        {
          OFFSET 3.978611 -25.770389 -3.943284
          CHANNELS 3 Zrotation Xrotation Yrotation
          JOINT WristRight
          {
            OFFSET 3.318075 -3.303244 -29.226374
            CHANNELS 3 Zrotation Xrotation Yrotation
            JOINT HandRight
            {
              OFFSET 8.788452 0.527032 -5.222257
              CHANNELS 3 Zrotation Xrotation Yrotation
              JOINT HandTipRight
              {
                OFFSET 4.511618 0.919414 -2.086165
                CHANNELS 3 Zrotation Xrotation Yrotation
                End Site
                {
                  OFFSET 0 0 0
                }
              }
              JOINT ThumbRight
              {
                OFFSET -3.091030 -1.798999 -1.134356
                CHANNELS 3 Zrotation Xrotation Yrotation
                End Site
                {
                  OFFSET 0 0 0
                }
              }
            }
          }
        }
      }
    }
  }
  JOINT HipLeft
  {
    OFFSET -3.711889 1.666792 -9.164340
    CHANNELS 3 Zrotation Xrotation Yrotation
    JOINT KneeLeft
    {
      OFFSET -8.741884 -34.411321 2.250498
      CHANNELS 3 Zrotation Xrotation Yrotation
      JOINT AnkleLeft
      {
        OFFSET -5.782165 -33.637010 3.950266
        CHANNELS 3 Zrotation Xrotation Yrotation
        JOINT FootLeft
        {
          OFFSET 7.769955 -4.505551 -5.696545
          CHANNELS 3 Zrotation Xrotation Yrotation
          End Site
          {
            OFFSET 0 0 0
          }
        }
      }
    }
  }
  JOINT HipRight
  {
    OFFSET 4.836260 0.133513 1.941361
    CHANNELS 3 Zrotation Xrotation Yrotation
    JOINT KneeRight
    {
      OFFSET -5.241367 -34.378183 5.000657
      CHANNELS 3 Zrotation Xrotation Yrotation
      JOINT AnkleRight
      {
        OFFSET -6.415449 -32.927114 3.390652
        CHANNELS 3 Zrotation Xrotation Yrotation
        JOINT FootRight
        {
          OFFSET 3.163058 -8.405122 -3.148554
          CHANNELS 3 Zrotation Xrotation Yrotation
          End Site
          {
            OFFSET 0 0 0
          }
        }
      }
    }
  }
}
MOTION
Frames: 10
Frame Time: 0.033333
-57.271987 74.618285 368.672398 -2.844524 -2.261160 -62.377011 -0.073354 -0.804648 62.225906 -0.043410 0.045506 -0.137810 -0.169100 8.938489 -1.371111 0.000000 0.000000 0.000000 -10.495828 8.131091 5.426972 -36.232333 -3.971890 2.070354 -18.012207 -16.165989 -6.769218 13.439235 11.024408 -33.866092 0.000000 0.000000 0.000000 0.000000 0.000000 0.000000 81.089595 -48.782315 16.374991 164.870273 42.098289 133.686047 71.139435 30.576011 40.680777 -24.168933 -7.652584 18.136457 0.000000 0.000000 0.000000 0.000000 0.000000 0.000000 -4.990805 2.119047 61.548070 4.691783 -8.130925 2.246779 -39.690897 -17.864059 35.978087 0.000000 0.000000 0.000000 -1.831625 6.489718 62.380969 -3.216104 -3.401814 0.042825 11.757626 -7.082788 -6.511725 0.000000 0.000000 0.000000
-57.088983 74.412622 368.433496 -3.665937 -2.442547 -60.016836 -0.149928 -0.610485 59.821701 -0.145610 0.020276 -0.172469 -0.254338 8.484828 -0.898238 0.000000 0.000000 0.000000 -12.574900 6.975466 6.735915 -40.151121 -2.591279 1.954321 -23.233957 -19.845542 -6.413239 16.933191 15.961964 -38.513062 0.000000 0.000000 0.000000 0.000000 0.000000 0.000000 78.074630 -44.189236 11.704873 162.354051 51.510545 132.022869 45.732331 3.357885 59.847727 9.044663 -12.202995 -2.327491 0.000000 0.000000 0.000000 0.000000 0.000000 0.000000 -4.284542 2.970330 59.301049 5.109351 -8.336073 2.333668 -39.343500 -15.785117 42.510400 0.000000 0.000000 0.000000 -1.633386 6.438017 59.902339 -2.123712 -3.369368 0.226116 11.678065 -10.462321 -7.675259 0.000000 0.000000 0.000000
-56.969086 74.263146 368.491046 -4.615575 -2.865426 -55.330889 -0.317629 -0.310938 55.080850 -0.276087 -0.046746 -0.213594 -0.140785 7.041781 -0.034389 0.000000 0.000000 0.000000 -14.110001 4.531005 7.888882 -42.695553 -0.459558 4.079741 -26.941541 -19.775308 -9.400246 17.808415 18.189750 -37.425908 0.000000 0.000000 0.000000 0.000000 0.000000 0.000000 75.564761 -32.554684 3.523560 175.953958 73.892352 113.050360 37.976177 -3.140841 58.922526 8.522561 -5.774788 2.558746 0.000000 0.000000 0.000000 0.000000 0.000000 0.000000 -3.916102 5.084283 54.592785 4.842413 -9.073005 2.547311 -32.872843 -5.619082 45.218443 0.000000 0.000000 0.000000 -1.504690 6.500208 55.053071 -0.788597 -3.320045 0.440032 10.704704 -14.180878 -8.709154 0.000000 0.000000 0.000000
-56.943016 74.187406 368.771547 -5.666161 -3.464580 -49.281082 -0.430212 0.012491 48.959623 -0.426749 -0.163703 -0.260941 0.188415 4.752798 1.179322 0.000000 0.000000 0.000000 -14.861736 1.746497 8.780692 -42.371588 1.754985 7.263356 -33.532905 -17.700079 -13.097465 20.134885 18.434977 -33.693097 0.000000 0.000000 0.000000 0.000000 0.000000 0.000000 74.812116 -15.810172 -5.730057 -58.427288 72.758632 -16.532393 29.975607 -9.878935 57.519264 3.561363 -5.387003 3.641801 0.000000 0.000000 0.000000 0.000000 0.000000 0.000000 -3.245072 8.084950 48.411403 4.085064 -10.086667 2.818799 -30.820957 -2.847227 43.663618 0.000000 0.000000 0.000000 -1.305197 6.824221 48.828526 0.473039 -3.208831 0.628486 10.409724 -16.405377 -9.389596 0.000000 0.000000 0.000000
-57.063770 74.106332 369.283740 -6.765279 -4.172907 -43.113574 -0.565146 0.277750 42.704884 -0.625010 -0.285866 -0.318158 1.227433 2.121892 2.429739 0.000000 0.000000 0.000000 -15.182371 -0.511227 9.582281 -41.618070 3.741632 9.487813 -37.422259 -18.307874 -13.572680 24.861278 20.142961 -36.844506 0.000000 0.000000 0.000000 0.000000 0.000000 0.000000 72.979413 -1.152096 -12.401420 -42.501880 44.015120 -34.582709 19.812994 -9.494800 59.361774 2.399021 -5.848782 1.213237 0.000000 0.000000 0.000000 0.000000 0.000000 0.000000 -2.004432 11.572736 41.958734 2.629883 -10.813673 2.927739 -29.732762 -3.037494 41.099899 0.000000 0.000000 0.000000 -0.902943 7.652594 42.498086 1.393024 -3.136903 0.762532 9.969637 -17.675504 -9.666172 0.000000 0.000000 0.000000
-57.374562 74.012048 370.028733 -7.896984 -5.051244 -36.813451 -0.688107 0.381342 36.288877 -0.798781 -0.489121 -0.384600 2.884002 -0.346086 3.669869 0.000000 0.000000 0.000000 -15.127137 -2.889193 10.381589 -40.620849 5.960233 12.470716 -37.046656 -14.328218 -16.653664 24.466150 15.752298 -26.651738 0.000000 0.000000 0.000000 0.000000 0.000000 0.000000 67.484850 11.499223 -16.050844 -35.752340 20.282187 -38.958746 12.455961 -7.379526 60.877715 -3.050354 -6.858187 -0.120425 0.000000 0.000000 0.000000 0.000000 0.000000 0.000000 -0.053055 15.440274 35.124969 0.761528 -11.517993 2.947153 -28.647590 -6.182629 31.656529 0.000000 0.000000 0.000000 0.010606 8.754714 36.031861 1.955100 -2.683869 0.770289 9.717788 -17.474125 -9.306492 0.000000 0.000000 0.000000
-57.845562 73.956977 370.806973 -9.093621 -6.020491 -31.115477 -0.768011 0.288753 30.435852 -0.859949 -0.660505 -0.449749 5.694325 -2.664119 4.739629 0.000000 0.000000 0.000000 -14.501940 -4.974135 11.045881 -39.647020 8.211256 15.234575 -34.477849 -12.646485 -17.922717 23.615720 12.170848 -18.716953 0.000000 0.000000 0.000000 0.000000 0.000000 0.000000 59.164394 20.147510 -15.890732 -31.932574 -0.723218 -39.139832 5.051160 -3.560129 64.898165 -4.508045 -6.105628 -6.326974 0.000000 0.000000 0.000000 0.000000 0.000000 0.000000 2.782759 19.118784 28.608669 -1.138607 -12.153922 2.901807 -32.017142 -12.411480 25.692580 0.000000 0.000000 0.000000 1.570246 9.982137 30.129403 2.640205 -1.715631 0.686147 9.525867 -17.273843 -8.886212 0.000000 0.000000 0.000000
-58.266424 73.900150 371.574598 -10.264898 -7.024169 -26.224219 -0.721278 0.146399 25.356349 -0.785869 -0.745540 -0.497329 7.933483 -4.719736 5.800392 0.000000 0.000000 0.000000 -14.029053 -7.232308 11.656995 -39.224732 10.472541 18.616237 -30.447474 -8.328446 -21.511167 21.815239 6.013241 -4.924922 0.000000 0.000000 0.000000 0.000000 0.000000 0.000000 52.619074 27.388466 -14.947856 -32.777624 -21.404477 -37.888871 -0.727705 -0.328358 63.661019 0.063340 -3.537241 -5.962635 0.000000 0.000000 0.000000 0.000000 0.000000 0.000000 5.847899 22.178423 22.695259 -2.696801 -12.681526 2.827077 -33.059618 -15.034740 22.438470 0.000000 0.000000 0.000000 3.145480 11.005063 24.973887 2.654265 -1.489081 0.648758 9.626283 -14.701421 -8.053749 0.000000 0.000000 0.000000
-58.578799 73.845133 372.344563 -11.181205 -8.021374 -22.540126 -0.640566 -0.029524 21.481340 -0.576760 -0.753339 -0.522687 10.093470 -6.354924 6.616896 0.000000 0.000000 0.000000 -14.049052 -9.108383 12.265482 -39.209418 12.589275 20.634471 -27.486552 -6.378042 -23.340167 22.797918 3.021228 2.498115 0.000000 0.000000 0.000000 0.000000 0.000000 0.000000 46.234145 33.581826 -13.159527 -33.694776 -36.905567 -36.471219 -5.961174 -2.133989 60.285173 -0.240085 -2.092781 -3.471552 0.000000 0.000000 0.000000 0.000000 0.000000 0.000000 8.345305 24.244723 18.077927 -3.641435 -12.606393 2.687045 -32.260319 -15.267494 22.776193 0.000000 0.000000 0.000000 4.529250 11.852168 21.023170 2.305384 -0.228172 0.363687 8.953769 -9.922514 -5.552297 0.000000 0.000000 0.000000
-58.718759 73.741037 372.848974 -11.806034 -8.850788 -19.494564 -0.450278 -0.289690 18.258423 -0.232395 -0.657250 -0.523137 11.504945 -7.380021 7.173521 0.000000 0.000000 0.000000 -14.206532 -10.955714 12.680244 -39.633506 14.401690 23.008295 -24.696177 -5.213349 -24.704249 23.855891 1.096228 8.362242 0.000000 0.000000 0.000000 0.000000 0.000000 0.000000 39.437100 36.269753 -10.346779 -33.285648 -46.129630 -34.251268 -10.253030 -3.714139 58.559756 3.557595 -0.909724 -2.271993 0.000000 0.000000 0.000000 0.000000 0.000000 0.000000 10.022682 25.218165 14.394172 -3.777818 -12.005766 2.566175 -28.357881 -11.116435 28.338663 0.000000 0.000000 0.000000 5.624552 11.923751 17.781893 2.603303 0.790491 0.216844 7.857975 -7.403632 -4.288570 0.000000 0.000000 0.000000
